<?xml version="1.0" standalone="no"?>
<!DOCTYPE svg PUBLIC "-//W3C//DTD SVG 20010904//EN"
 "http://www.w3.org/TR/2001/REC-SVG-20010904/DTD/svg10.dtd">
<svg version="1.0" xmlns="http://www.w3.org/2000/svg"
 width="136.000000pt" height="123.000000pt" viewBox="0 0 136.000000 123.000000"
 preserveAspectRatio="xMidYMid meet">

<g transform="translate(0.000000,123.000000) scale(0.100000,-0.100000)"
fill="#000000" stroke="none">
<path d="M386 934 c-27 -27 -20 -80 17 -119 45 -49 105 -56 203 -23 l71 23 64
-22 c108 -38 192 -24 223 36 28 52 13 121 -25 121 -24 0 -49 -22 -49 -43 1
-20 2 -20 11 -4 5 9 19 17 29 17 28 0 27 -51 -1 -76 -31 -28 -120 -25 -179 6
-54 28 -97 27 -154 -2 -86 -45 -196 -23 -196 39 0 31 26 40 50 18 24 -22 26
-8 4 23 -18 26 -46 28 -68 6z"/>
<path d="M223 220 c0 -25 2 -35 4 -22 2 12 2 32 0 45 -2 12 -4 2 -4 -23z"/>
<path d="M265 240 c-6 -18 9 -60 21 -60 2 0 0 8 -5 18 -6 10 -7 28 -4 40 7 27
-3 29 -12 2z"/>
<path d="M322 234 c1 -17 -2 -37 -6 -45 -4 -8 0 -5 8 5 18 23 20 35 6 56 -6
10 -9 6 -8 -16z"/>
<path d="M363 220 c0 -25 2 -35 4 -22 2 12 2 32 0 45 -2 12 -4 2 -4 -23z"/>
<path d="M423 220 c0 -25 2 -35 4 -22 2 12 2 32 0 45 -2 12 -4 2 -4 -23z"/>
<path d="M451 218 c1 -24 4 -34 6 -23 3 11 9 25 13 30 4 6 2 16 -6 23 -12 11
-14 6 -13 -30z"/>
<path d="M583 220 c0 -25 2 -35 4 -22 2 12 2 32 0 45 -2 12 -4 2 -4 -23z"/>
<path d="M620 245 c0 -8 -6 -15 -12 -15 -7 0 -5 -5 5 -11 14 -8 16 -14 6 -25
-10 -12 -9 -13 5 -8 18 7 21 20 7 28 -5 3 -7 15 -4 26 3 11 3 20 -1 20 -3 0
-6 -7 -6 -15z"/>
<path d="M655 240 c-6 -18 9 -60 21 -60 2 0 0 9 -6 20 -6 12 -8 30 -5 40 4 11
4 20 1 20 -2 0 -7 -9 -11 -20z"/>
<path d="M705 220 c0 -35 2 -38 13 -23 7 10 10 24 7 31 -3 8 -5 18 -5 23 0 5
-3 9 -7 9 -5 0 -8 -18 -8 -40z"/>
<path d="M853 220 c0 -25 2 -35 4 -22 2 12 2 32 0 45 -2 12 -4 2 -4 -23z"/>
<path d="M903 220 c0 -25 2 -35 4 -22 2 12 2 32 0 45 -2 12 -4 2 -4 -23z"/>
<path d="M937 253 c-13 -13 -7 -51 11 -64 15 -13 16 -12 3 3 -8 11 -11 28 -7
43 6 25 5 30 -7 18z"/>
<path d="M988 231 c2 -16 -1 -32 -7 -35 -6 -4 -11 -12 -11 -17 0 -6 7 -4 15 5
16 16 20 61 7 70 -5 3 -7 -8 -4 -23z"/>
<path d="M1021 238 c-1 -32 8 -58 21 -58 7 0 7 4 0 13 -6 6 -12 26 -15 42 -4
29 -4 29 -6 3z"/>
<path d="M1113 220 c0 -25 2 -35 4 -23 2 12 12 24 21 26 16 4 16 5 0 6 -9 0
-19 9 -21 19 -3 9 -5 -3 -4 -28z"/>
<path d="M484 201 c21 -23 26 -26 26 -11 0 5 -10 15 -22 21 -23 12 -23 12 -4
-10z"/>
</g>
</svg>
