<?xml version="1.0" standalone="no"?>
<!DOCTYPE svg PUBLIC "-//W3C//DTD SVG 20010904//EN"
 "http://www.w3.org/TR/2001/REC-SVG-20010904/DTD/svg10.dtd">
<svg version="1.0" xmlns="http://www.w3.org/2000/svg"
 width="234.000000pt" height="237.000000pt" viewBox="0 0 234.000000 237.000000"
 preserveAspectRatio="xMidYMid meet">

<g transform="translate(0.000000,237.000000) scale(0.100000,-0.100000)"
fill="#000000" stroke="none">
<path d="M0 1185 l0 -1185 1170 0 1170 0 0 1185 0 1185 -1170 0 -1170 0 0
-1185z m1484 356 c43 -5 85 -7 92 -4 15 6 16 -8 4 -47 -8 -24 -8 -24 -9 -3 -1
24 -28 43 -60 43 -20 0 -21 -5 -21 -115 0 -101 2 -115 17 -115 9 0 14 -2 11
-5 -2 -3 -27 -2 -53 2 -40 5 -45 8 -27 14 21 8 22 15 22 107 0 63 -4 102 -12
110 -17 17 -54 15 -72 -4 -15 -14 -16 -13 -16 10 0 22 4 26 23 21 12 -3 57 -9
101 -14z m-696 -19 c3 -11 0 -12 -15 -4 -30 16 -46 1 -27 -26 18 -25 59 -29
88 -7 23 17 60 11 95 -17 13 -10 34 -18 46 -18 26 0 50 24 40 40 -9 14 -32 13
-38 -2 -3 -8 -6 -6 -6 5 -1 22 36 23 61 0 22 -20 23 -31 1 -55 -18 -21 -62
-23 -113 -7 -19 6 -59 11 -89 10 -64 -3 -105 12 -119 43 -8 18 -7 27 6 40 19
19 63 18 70 -2z m-543 -1032 c0 -49 -4 -70 -12 -70 -9 0 -13 20 -13 66 0 65 0
66 -25 62 -14 -3 -25 -1 -25 3 0 5 17 9 38 9 l37 0 0 -70z m45 45 c0 -8 -2
-15 -4 -15 -2 0 -6 7 -10 15 -3 8 -1 15 4 15 6 0 10 -7 10 -15z m154 -6 c34
-27 36 -78 4 -105 -13 -10 -17 -12 -10 -4 30 35 9 106 -38 123 -13 5 -12 6 1
6 9 1 28 -8 43 -20z m-82 -1 c-19 -19 -14 -76 8 -98 24 -24 4 -27 -22 -3 -32
28 -20 113 16 113 6 0 5 -5 -2 -12z m187 -55 c-3 -32 -4 -61 -2 -65 2 -5 -2
-8 -9 -8 -9 0 -13 18 -13 65 0 52 3 65 16 65 13 0 14 -9 8 -57z m141 32 c-7
-8 -11 -35 -8 -65 2 -42 0 -50 -14 -50 -14 0 -15 5 -7 32 13 46 11 85 -3 91
-7 3 0 6 16 6 24 1 27 -1 16 -14z m93 -2 c-14 -5 -18 -43 -5 -43 14 0 43 36
35 43 -3 4 1 7 10 7 23 0 21 -7 -9 -33 l-25 -22 36 -42 c23 -28 31 -43 22 -43
-8 0 -25 16 -38 35 -29 43 -43 45 -37 5 3 -23 1 -30 -11 -30 -13 0 -15 11 -13
65 3 59 6 65 25 64 12 0 16 -3 10 -6z m267 -32 c7 -14 7 -22 -1 -26 -7 -5 -5
-13 6 -25 11 -12 14 -26 10 -39 -9 -28 -25 -27 -18 0 4 15 0 27 -13 36 -15 11
-16 15 -5 22 18 11 7 41 -15 41 -13 0 -15 -10 -12 -60 2 -48 0 -60 -12 -60
-12 0 -14 12 -12 65 4 64 4 65 33 65 18 0 32 -7 39 -19z m175 -16 c32 -31 32
-57 0 -92 l-25 -28 17 32 c22 39 10 81 -27 100 -19 10 -21 13 -7 13 10 0 29
-11 42 -25z m-93 -15 c-6 -44 5 -75 30 -88 18 -8 19 -11 6 -11 -29 -1 -58 36
-58 72 0 26 14 57 25 57 1 0 0 -13 -3 -30z m190 -30 c-3 -30 1 -57 8 -65 7 -9
8 -15 2 -15 -19 0 -30 25 -33 78 -3 41 -1 52 11 52 12 0 14 -11 12 -50z m79
-13 c-5 -54 -8 -50 -13 19 -2 25 1 40 7 38 6 -3 8 -26 6 -57z m103 47 c20 -8
24 -124 4 -124 -9 0 -12 17 -10 60 3 55 2 60 -16 60 -11 0 -23 -6 -25 -12 -3
-8 -6 -6 -6 5 -1 17 23 23 53 11z m66 -8 c0 -11 -19 -15 -25 -6 -3 5 1 10 9
10 9 0 16 -2 16 -4z m66 -70 c1 -44 -2 -63 -10 -60 -6 3 -11 30 -11 68 0 84
20 76 21 -8z m149 58 c15 -6 45 -54 45 -73 0 -5 -11 -23 -25 -39 l-26 -31 23
-15 c12 -9 18 -16 12 -16 -6 0 -23 9 -37 20 -14 11 -29 20 -33 20 -4 0 -18 10
-31 22 -26 24 -31 79 -10 96 10 8 12 2 9 -29 -5 -46 18 -79 54 -79 51 0 55 88
6 115 -27 14 -18 21 13 9z m-1170 -23 c-3 -6 -11 -11 -17 -11 -6 0 -6 6 2 15
14 17 26 13 15 -4z m1277 -31 c-3 -26 2 -49 12 -65 17 -25 7 -35 -12 -12 -14
17 -20 117 -7 117 6 0 9 -17 7 -40z m87 -17 c-1 -53 -6 -49 -11 10 -2 20 0 37
4 37 4 0 8 -21 7 -47z m75 17 c-6 -27 -4 -30 20 -30 14 0 26 -4 26 -9 0 -5
-10 -7 -21 -4 -19 5 -21 3 -17 -25 3 -24 1 -32 -11 -32 -13 0 -16 12 -16 65 0
45 4 65 12 65 9 0 11 -10 7 -30z m56 10 c0 -5 -2 -10 -4 -10 -3 0 -8 5 -11 10
-3 6 -1 10 4 10 6 0 11 -4 11 -10z"/>
</g>
</svg>
